<svg xmlns="http://www.w3.org/2000/svg" viewBox="0 0 32 32">
  <defs>
    <linearGradient id="g" x1="0%" y1="0%" x2="100%" y2="100%">
      <stop offset="0%" stop-color="#0ea5e9"/>
      <stop offset="100%" stop-color="#6366f1"/>
    </linearGradient>
  </defs>
  <rect width="32" height="32" rx="6" fill="url(#g)"/>
  <polygon points="16,5 26,10.5 26,21.5 16,27 6,21.5 6,10.5" fill="none" stroke="#fff" stroke-width="1" opacity=".4"/>
  <polygon points="16,8.5 23,12.5 23,20 16,24 9,20 9,12.5" fill="none" stroke="#fff" stroke-width=".8" opacity=".6"/>
  <polygon points="16,10 21,14 20,20.5 14,22 10,17 13,11.5" fill="#fff" opacity=".3"/>
  <line x1="16" y1="16" x2="16" y2="5" stroke="#fff" stroke-width=".4" opacity=".3"/>
  <line x1="16" y1="16" x2="26" y2="10.5" stroke="#fff" stroke-width=".4" opacity=".3"/>
  <line x1="16" y1="16" x2="26" y2="21.5" stroke="#fff" stroke-width=".4" opacity=".3"/>
  <line x1="16" y1="16" x2="16" y2="27" stroke="#fff" stroke-width=".4" opacity=".3"/>
  <line x1="16" y1="16" x2="6" y2="21.5" stroke="#fff" stroke-width=".4" opacity=".3"/>
  <line x1="16" y1="16" x2="6" y2="10.5" stroke="#fff" stroke-width=".4" opacity=".3"/>
  <circle cx="16" cy="16" r="1.5" fill="#fff"/>
</svg>
